<svg viewBox="0 0 120 40" xmlns="http://www.w3.org/2000/svg">
  <rect x="2" y="5" width="116" height="30" rx="4" fill="#000000"/>
  <g transform="translate(15, 12)">
    <!-- Apple Logo -->
    <path d="M10 1c-.8.1-1.5.4-2 1-.4.5-.7 1.2-.6 1.9.8.1 1.5-.4 2-1 .4-.5.7-1.2.6-1.9z M10 3c-1.1 0-2 .6-2.5.6s-1.5-.6-2.4-.6c-1.2 0-2.4.7-3 1.9-1.3 2.2-.3 5.5.9 7.3.6.9 1.3 1.9 2.3 1.9.9 0 1.2-.6 2.3-.6s1.3.6 2.3.6c.9 0 1.6-.9 2.2-1.8.7-1 1-2 1-2.1-1.8-.7-1.9-3.1-1.9-3.1.6-1.9 1.6-2.8 1.6-2.8-1-1.3-2.3-1.4-2.8-1.3z" fill="white"/>
    <!-- "Pay" text -->
    <text x="20" y="12" fill="white" font-family="Arial, sans-serif" font-size="10" font-weight="bold">Apple Pay</text>
  </g>
</svg>
